<?xml version="1.0" encoding="UTF-8" standalone="no"?>
<!-- Created with Inkscape (http://www.inkscape.org/) -->

<svg version="1.1" id="svg1" width="827" height="297" viewBox="0 0 827 297" xmlns="http://www.w3.org/2000/svg" xmlns:svg="http://www.w3.org/2000/svg">
  <defs id="defs1" />
  <g id="g1">
    <path style="fill:#000000" d="M 105.02844,223.92773 C 97.118663,220.33979 94.044046,217.23986 89.904011,208.67879 87.756805,204.23864 86,199.75031 86,198.70471 c 0,-1.75212 0.489729,-1.83733 6.25,-1.08741 13.33609,1.73619 88.20486,-0.3075 101.12162,-2.76031 6.69209,-1.27079 6.99256,-1.23786 11.5,1.26013 2.54561,1.41076 6.77158,5.20879 9.39105,8.44007 5.2239,6.44402 7.24358,11.62835 5.67321,14.56262 -1.91135,3.5714 -4.92718,4.24911 -16.93588,3.80583 -26.18927,-0.96674 -69.31749,-0.16007 -78.75044,1.47294 -11.80851,2.04427 -13.78309,1.9959 -19.22112,-0.47085 z M 587.76778,197.89397 587.5,173.78795 l -5.69002,7.94885 c -6.79375,9.49076 -16.15396,19.29041 -24.10688,25.23863 l -5.79689,4.33567 -1.66203,-2.40555 c -0.91411,-1.32305 -3.8481,-4.73085 -6.51997,-7.57288 l -4.85795,-5.16733 6.07871,-4.12797 c 12.05617,-8.18719 25.1142,-22.35484 32.52365,-35.28737 L 580.19004,152 H 562.09502 544 v -9 -9 h 22 22 v -13.59623 -13.59623 l 10.75,0.71495 c 5.9125,0.39322 10.97429,0.92331 11.24843,1.17799 0.27413,0.25467 -0.28837,1.03836 -1.25,1.74152 C 607.265,111.52671 607,113.40891 607,122.86024 V 134 h 22 22 v 8.97793 8.97794 l -18.50825,0.27206 -18.50825,0.27207 4.65408,6.93598 c 6.48255,9.66096 20.11743,23.49849 29.43682,29.87433 l 7.84221,5.36523 -3.97266,3.8792 c -2.18497,2.13356 -5.14714,5.57396 -6.58261,7.64534 l -2.60993,3.76614 -2.95035,-1.73311 C 634.01178,204.83233 621.894,192.68631 614.50738,182.8805 L 607,172.91436 V 197.45718 222 h -9.48222 -9.48222 z M 685.77071,201.75 685.5,181.5 l -2.13661,4.62078 c -1.17513,2.54142 -3.82057,7.25323 -5.87874,10.47067 l -3.74213,5.8499 -4.37692,-8.71048 -4.37693,-8.71048 3.39104,-4.76019 C 673.87683,172.54355 683,152.93927 683,148.84345 683,148.37955 679.85,148 676,148 h -7 v -8.5 -8.5 h 8.5 8.5 v -12.11892 -12.11892 l 9.75,0.72137 c 5.3625,0.39676 9.97125,0.93402 10.24167,1.19393 0.27042,0.2599 -0.29208,0.91115 -1.25,1.44723 C 703.2681,110.94934 703,112.63109 703,121.04969 V 131 h 7 7 v 8.5 8.5 h -7 c -4.94724,0 -6.99235,0.36656 -6.97392,1.25 0.0143,0.6875 3.82504,5.75 8.46822,11.25 4.64318,5.5 8.23555,10.58861 7.98304,11.30803 -0.25251,0.71942 -2.55528,4.24555 -5.11727,7.83586 l -4.65816,6.52783 -3.10096,-5.78127 L 703.5,174.60918 703.2319,198.30459 702.9638,222 h -8.46119 -8.4612 z m 51.59592,11.086 -2.94193,-9.336 8.78765,-0.28753 L 752,202.92495 v -16.62914 c 0,-9.14603 -0.1864,-16.44164 -0.41422,-16.21248 -0.22782,0.22917 -2.70768,3.56667 -5.51081,7.41667 -5.27773,7.2488 -19.17311,21.91615 -22.43516,23.68158 -1.53827,0.83251 -2.40023,0.34145 -4.98059,-2.83742 -1.71621,-2.11429 -4.42702,-5.17667 -6.02402,-6.80529 l -2.90362,-2.96114 3.38421,-2.47983 c 6.61664,-4.84844 20.60724,-19.71536 25.73884,-27.35103 C 746.66734,147.1218 747.17787,148 732.60699,148 H 720 v -8.5 -8.5 h 16 16 v -12.14674 -12.14673 l 7.65088,0.64673 c 4.20798,0.35571 9.27048,0.66171 11.25,0.68001 l 3.59912,0.0333 -2.25,1.87702 c -2.04643,1.7072 -2.25,2.74467 -2.25,11.46673 V 131 h 6 6 v 8.5 8.5 h -6 -6 v 30.53212 c 0,32.89906 -0.35013,35.5016 -5.20397,38.68196 -3.25982,2.13591 -8.69545,3.47758 -17.39175,4.29277 l -7.09573,0.66515 z M 306,178.5 V 137 l 7.25,0.0576 c 3.9875,0.0317 9.05,0.38962 11.25,0.79539 3.8316,0.7067 3.90528,0.78996 1.75,1.97756 -2.24705,1.23816 -2.25,1.2751 -2.25,28.2046 V 195 h 11 11 v -42 -42 l 6.75,0.0876 c 3.7125,0.0482 9,0.39698 11.75,0.77511 4.67124,0.64231 4.85206,0.77037 2.75,1.94758 L 365,115.07037 V 155.03518 195 h 11.5 11.5 v -29.39228 -29.39228 l 10.75,0.52427 c 5.9125,0.28834 10.975,0.73906 11.25,1.00159 0.275,0.26253 -0.5125,1.15802 -1.75,1.98998 L 406,141.24394 V 180.62197 220 h -9 -9 v -3.5 -3.5 h -32 -32 v 3.5 3.5 h -9 -9 z m -82.59743,11.42075 c -2.17283,-0.63055 -4.40671,-2.76781 -7.48348,-7.15981 -3.95203,-5.64141 -24.85747,-32.40472 -52.31817,-66.97815 -5.5555,-6.99447 -10.41119,-12.73197 -10.79041,-12.75 -0.76131,-0.0362 -21.04855,25.56425 -44.74779,56.46721 -8.435811,11 -17.623066,22.3625 -20.41612,25.25 L 82.56832,190 H 66.006666 c -13.371123,0 -16.98981,-0.29989 -18.78416,-1.5567 C 46.000128,187.58711 45,186.17201 45,185.29864 c 0,-0.87337 8.6625,-10.42075 19.25,-21.2164 26.507856,-27.029 42.20716,-44.01508 63.26563,-68.451125 9.89141,-11.477887 18.47104,-21.472695 19.06587,-22.210685 1.65292,-2.050771 6.27412,-3.494771 8.99709,-2.811349 2.67469,0.671305 8.06448,6.514729 28.95399,31.390919 15.33224,18.25834 39.81204,45.84855 57.46742,64.76925 17.10791,18.334 18.21893,20.29593 12.99114,22.94089 -2.91046,1.47253 -26.69369,1.6311 -31.58857,0.21061 z M 421,163.5 V 154 h 56 56 v 9.5 9.5 h -56 -56 z" id="path2" />
  </g>
</svg>
