<?xml version="1.0" encoding="UTF-8" standalone="no"?>
<!-- Created with Inkscape (http://www.inkscape.org/) -->

<svg version="1.1" id="svg1" width="1920" height="836" viewBox="0 0 1920 836" xmlns="http://www.w3.org/2000/svg" xmlns:svg="http://www.w3.org/2000/svg">
  <defs id="defs1" />
  <g id="g1">
    <g id="g22">
      <path style="fill:#deba5f" d="M 255.57878,779.97988 C 242.77803,777.2832 232.01353,773.52194 220,767.54819 197.72737,756.47309 183.97256,744.96885 173.61173,728.75 170.57684,723.99919 169.45319,723 167.14549,723 161.57479,723 145.24384,719.70947 134,716.3215 85.580192,701.73176 51.132876,666.12654 39.084872,618.21594 33.651714,596.6102 31.755038,564.1655 34.863221,546 c 3.958226,-23.13351 10.44591,-39.69415 23.451857,-59.86384 l 6.038049,-9.36383 -1.328426,-6.13617 c -5.506528,-25.43532 -3.319819,-50.43823 6.524075,-74.5965 8.024515,-19.69326 22.747869,-36.43375 42.607884,-48.44529 39.97535,-24.17748 98.24269,-23.53265 147.69793,1.63454 18.50524,9.41711 26.6582,15.30085 41.25306,29.77109 13.96419,13.84494 25.51749,29.89468 33.19566,46.11506 4.92889,10.41245 3.72792,10.04233 22.28921,6.86912 50.61937,-8.65381 100.04163,-31.70182 167.41171,-78.07224 8.23139,-5.66561 36.42986,-28.05307 47.49577,-37.70805 C 609.15286,283.35186 648.1543,237.69296 674.17713,196 c 28.96681,-46.40971 49.17413,-89.23308 67.87162,-143.833594 4.95817,-14.47888 6.48614,-17.961988 7.26728,-16.566179 2.23987,4.002429 -0.80693,60.131749 -4.86003,89.533233 -8.21853,59.61783 -20.12698,104.40297 -43.70537,164.36654 -5.97767,15.20215 -28.52501,60.35952 -37.6976,75.5 -21.37244,35.27782 -47.48167,71.00575 -71.61637,98 -61.36183,68.63218 -113.00249,110.3803 -170.74667,138.03761 l -15.32967,7.34234 -1.20055,19.56002 C 401.3153,674.2836 391.08445,706.53724 370.20035,735 c -17.11137,23.32094 -43.64541,40.21343 -71.45071,45.48801 -11.18191,2.12117 -31.8444,1.87797 -43.17086,-0.50813 z" id="path23" />
      <path style="fill:#14375c" d="m 1262.5,736.28298 c -6.8553,-0.9537 -19.3958,-4.62801 -25,-7.32485 -12.6886,-6.10601 -25.0347,-20.57216 -29.8827,-35.01389 -4.7831,-14.24854 -5.0537,-32.62241 -0.6905,-46.87954 5.0299,-16.43552 18.4747,-31.40277 34.6243,-38.54489 10.622,-4.69753 17.9864,-6.00261 33.4489,-5.92759 15.633,0.0758 24.6376,1.8062 35.6603,6.85255 l 5.3397,2.44458 v 15.05533 c 0,8.28042 -0.3375,15.0431 -0.75,15.02818 -0.4125,-0.0149 -2.417,-3.55021 -4.4544,-7.85618 -6.3338,-13.3861 -16.3212,-21.08552 -30.1424,-23.23729 -13.7461,-2.14007 -27.7563,2.51788 -38.053,12.65141 -9.7676,9.61278 -14.4268,22.07656 -15.3151,40.9692 -1.7443,37.09922 13.7993,59.99432 43.4138,63.94687 6.251,0.83431 18.1041,-1.14727 23.9912,-4.01081 6.6395,-3.22957 14.368,-11.66206 16.9738,-18.52011 3.4806,-9.16013 4.3361,-7.5867 4.3361,7.97504 v 14.05765 l -3.0329,1.56838 c -11.0655,5.72219 -34.9514,8.92449 -50.4671,6.76596 z m 243.5,0.0921 c -12.3943,-2.41924 -24.2457,-7.07169 -29.6927,-11.65625 -11.4971,-9.67691 -17.3389,-18.75595 -21.4967,-33.40954 -3.287,-11.58458 -3.2683,-32.75935 0.038,-43.29052 3.8023,-12.10979 7.8224,-18.77123 16.6119,-27.52701 12.2581,-12.21097 24.1074,-17.21475 43.1252,-18.21101 31.8639,-1.6692 57.5408,15.31302 66.9712,44.29348 2.5971,7.98094 2.9052,10.30181 2.9109,21.92574 0.01,14.36306 -1.4089,21.43815 -6.4586,32.26959 -5.1819,11.11531 -16.4998,23.88489 -25.0096,28.21766 -9.0052,4.58496 -20.2264,7.1866 -32.5,7.53511 -6.6,0.1874 -13.125,0.12114 -14.5,-0.14725 z m 26.4709,-10.07087 c 8.3968,-2.72249 15.3545,-8.84283 20.8086,-18.30424 5.6031,-9.72009 8.0294,-21.47062 8.0529,-39 0.03,-22.58241 -5.0934,-37.90375 -16.1152,-48.19016 -13.3804,-12.48761 -34.3473,-14.0378 -49.7172,-3.67583 -11.8719,8.00374 -17.5715,19.89217 -19.4765,40.62542 -1.802,19.61144 0.5972,37.62669 6.5862,49.45365 9.0342,17.84075 29.5226,25.68548 49.8612,19.09116 z m -531.0569,7.38695 c 1.0528,-0.65515 3.3028,-2.39171 5,-3.85901 l 3.086,-2.66782 v -57.00858 c 0,-56.25897 -0.028,-57.04572 -2.0899,-59.83219 -1.1495,-1.55297 -3.3995,-3.49859 -5,-4.32359 -2.63774,-1.35961 0.974,-1.52446 38.5893,-1.7613 22.8246,-0.14371 41.9922,-0.0722 42.5945,0.15897 0.6024,0.23114 1.6709,2.59872 2.3745,5.26129 0.7037,2.66257 1.8986,6.76927 2.6555,9.12599 1.8612,5.7956 1.7296,6.30709 -0.6281,2.44012 -1.0982,-1.8012 -3.1508,-3.7137 -4.5614,-4.25 C 1082.0032,616.43091 1069.1875,616 1054.4349,616 H 1028 v 23.3 c 0,16.78889 0.3353,23.63534 1.2,24.5 1.4986,1.49859 29.668,1.66709 34.8066,0.20821 1.9214,-0.54548 4.7188,-2.45798 6.2165,-4.25 l 2.7231,-3.25821 0.027,13.8212 0.027,13.8212 -3.279,-3.47679 c -4.0936,-4.34044 -7.2795,-4.87313 -26.721,-4.46787 l -14.5,0.30226 -0.2874,22 c -0.1759,13.45735 0.1334,23.69973 0.7964,26.37733 1.0522,4.24937 4.1957,8.02166 6.741,8.0894 0.6875,0.0183 1.25,0.48327 1.25,1.03327 0,0.6332 -6.8775,0.97843 -18.75,0.94119 -14.9287,-0.0468 -18.35991,-0.30157 -16.836,-1.25 z m 73.586,0.4201 c 0,-0.48879 1.5507,-1.17962 3.446,-1.53518 6.5119,-1.22163 9.9862,-6.81673 22.4803,-36.2021 6.2845,-14.7807 12.2715,-28.67401 13.3045,-30.87401 1.6502,-3.51429 5.2123,-11.95062 13.3006,-31.5 9.4753,-22.90206 14.4675,-33.5369 15.8772,-33.82332 0.8753,-0.17783 1.5914,0.18261 1.5914,0.80098 0,0.98205 5.5822,14.83171 9.4809,23.52234 4.0643,9.06 14.2706,33.41575 19.5025,46.53993 3.3017,8.28231 7.1793,17.62404 8.617,20.75941 1.4376,3.13536 3.4168,7.72566 4.3982,10.20066 0.9815,2.475 4.0801,9.30236 6.8859,15.17192 5.2264,10.93321 8.3052,14.51601 13.339,15.52277 7.4137,1.48276 0.8189,2.30517 -18.4735,2.30376 -20.8799,-0.002 -21.1899,-0.032 -17.8008,-1.75 4.9536,-2.51109 5.553,-5.91142 2.5883,-14.68285 -1.3134,-3.88608 -3.9889,-10.56084 -5.9454,-14.83281 l -3.5573,-7.76721 -25.1014,0.26721 -25.1015,0.26721 -4.5878,11.5 c -7.0812,17.74998 -6.8759,24.88367 0.7559,26.27264 1.375,0.25025 -5.9375,0.51628 -16.25,0.59118 -10.3701,0.0753 -18.75,-0.26101 -18.75,-0.75253 z m 82.3027,-50.43285 c 1.4805,-1.17145 0.7236,-3.39997 -9.231,-27.17844 -0.4605,-1.1 -2.315,-5.6 -4.1211,-10 -4.0077,-9.76362 -5.3403,-11.51497 -6.7465,-8.86666 -1.6865,3.17612 -18.2041,44.24981 -18.2041,45.26742 0,1.4733 3.1669,1.75866 20.6567,1.8613 11.0246,0.0647 16.6298,-0.27951 17.646,-1.08362 z M 1370,734.24411 c 0,-0.41574 1.3603,-1.35802 3.0229,-2.09396 6.0838,-2.69293 5.9771,-1.56435 5.9771,-63.23419 v -56.18335 l -9.75,0.47357 c -6.5969,0.32042 -10.8819,1.05073 -13.25,2.25823 -9.7185,4.95546 -16.8283,13.97634 -19.1407,24.28559 -0.6477,2.8875 -1.556,5.25 -2.0184,5.25 -1.2491,0 -1.1347,-0.90388 2.6591,-21 1.9209,-10.175 3.4942,-18.8375 3.4962,-19.25 0,-0.4125 21.2663,-0.74959 47.2538,-0.7491 l 47.25,9e-4 3.3406,18.2491 c 1.8373,10.03701 3.5736,19.2616 3.8584,20.4991 1.081,4.6969 -1.3641,2.00088 -2.9982,-3.30586 -2.2231,-7.21952 -7.32,-15.10637 -12.7863,-19.78535 -5.5944,-4.78856 -12.5983,-6.8362 -22.0772,-6.45436 L 1397.5,613.5 l -0.2834,54 c -0.1982,37.76255 0.055,55.2383 0.843,58.11815 0.8761,3.20285 1.9949,4.60621 5.0334,6.31399 2.1489,1.20771 3.907,2.39204 3.907,2.63184 0,0.23981 -8.325,0.43602 -18.5,0.43602 -10.175,0 -18.5,-0.34015 -18.5,-0.75589 z m 225.0063,0.006 c 0,-0.4125 1.3722,-1.5273 3.0416,-2.47734 6.0909,-3.46632 6.0952,-3.51283 5.7555,-62.1239 -0.2857,-49.30631 -0.443,-53.45813 -2.176,-57.42793 -1.0273,-2.35355 -2.7138,-4.73188 -3.7477,-5.28519 -4.5966,-2.46005 -1.1267,-2.93537 21.3703,-2.92744 39.7801,0.014 51.8028,2.57149 62.9409,13.38875 8.7921,8.53873 10.7143,22.9045 4.7213,35.28436 -4.2502,8.7799 -16.6368,17.54719 -28.7139,20.324 -3.4156,0.78531 -5.1944,1.68265 -5,2.52225 0.5621,2.42787 24.2146,30.91132 34.2483,41.24334 5.4859,5.649 12.118,11.724 14.7381,13.5 2.62,1.77601 4.7753,3.5666 4.7895,3.9791 0.014,0.4125 -5.7117,0.74832 -12.7242,0.74626 -13.3549,-0.004 -14.9847,-0.43927 -21.231,-5.67154 -2.409,-2.01793 -18.7613,-22.50747 -29.269,-36.67422 -6.6143,-8.91762 -6.75,-9.22409 -6.75,-15.24771 v -6.14717 l 3.75,-0.62245 c 2.0625,-0.34234 6.0294,-1.69067 8.8154,-2.99627 11.6073,-5.43963 17.4556,-14.0304 18.2197,-26.76353 1.3007,-21.67707 -12.8754,-33.77036 -38.3018,-32.67438 l -6.9833,0.3009 -0.2951,58 c -0.2693,52.90346 -0.1465,58.28395 1.3974,61.23147 0.931,1.77731 2.9763,3.79966 4.5452,4.49411 1.5689,0.69445 2.8525,1.60279 2.8525,2.01853 0,0.41574 -8.1,0.75589 -18,0.75589 -9.9,0 -17.9972,-0.3375 -17.9937,-0.75 z M 1737,734.52568 c 0,-0.26088 1.3424,-1.16849 2.9831,-2.01693 5.547,-2.86849 6.0175,-5.15492 6.0107,-29.20909 0,-16.28519 -0.3447,-22.43206 -1.3444,-24.29966 -9.2191,-17.22122 -19.3488,-35.24264 -29.8951,-53.18512 -6.9643,-11.8485 -12.6485,-18.24826 -17.2291,-19.39791 -6.5498,-1.64389 -0.9021,-2.41048 17.2248,-2.33802 14.4693,0.0578 19.0142,0.34768 16.998,1.08401 -3.1461,1.14897 -4.2679,4.24571 -3.4234,9.45004 0.4867,2.99882 17.1446,34.24172 24.3219,45.61713 1.2944,2.05157 2.3535,4.11932 2.3535,4.59501 0,0.47569 0.8604,1.64351 1.9119,2.59515 2.1555,1.9507 1.5404,2.84429 17.1531,-24.92029 11.8628,-21.09617 13.0171,-23.2993 13.9975,-26.71809 1.3109,-4.57065 -0.4394,-9.38359 -3.8687,-10.63837 -1.9678,-0.72002 1.8202,-1.00692 14.0562,-1.06459 10.5526,-0.0497 16.75,0.29104 16.75,0.92105 0,0.55 -0.9293,1 -2.0652,1 -4.0889,0 -12.0706,9.92249 -21.3469,26.53739 -15.9735,28.6101 -21.8108,38.8996 -24.2194,42.69117 -2.3227,3.65641 -2.3685,4.19488 -2.3685,27.82692 v 24.09837 l 2.9231,2.92307 c 1.6077,1.6077 3.6327,2.92308 4.5,2.92308 0.8673,0 1.5769,0.45 1.5769,1 0,0.63063 -6.8333,1 -18.5,1 -10.175,0 -18.5,-0.21344 -18.5,-0.47432 z M 900.3997,726.25 c -7.21995,-8.92808 -36.04494,-36.83648 -43.88024,-42.48493 -0.5607,-0.4042 -2.36946,-1.80086 -4.01946,-3.10369 -5.90443,-4.66206 -27.14781,-18.52217 -35.10032,-22.90097 -9.84951,-5.42333 -31.36282,-14.39756 -44.79723,-18.68706 -41.18658,-13.15057 -86.68689,-15.21568 -133.84208,-6.07465 -5.5721,1.08015 -10.34946,1.74555 -10.61634,1.47866 -0.26689,-0.26688 0.41292,-1.49597 1.51068,-2.7313 7.33675,-8.25618 20.91983,-30.50066 29.33027,-48.03302 13.12786,-27.36632 20.59608,-53.27971 24.54857,-85.17924 1.81242,-14.62755 1.28063,-59.69839 -0.88532,-75.0338 -2.54268,-18.00279 -8.80632,-44.32456 -13.39026,-56.27014 -0.44764,-1.16652 -0.17635,-1.25313 1.3404,-0.42793 1.0459,0.56902 2.83998,1.91982 3.98686,3.00178 7.69597,7.26031 30.83264,20.66996 49.53922,28.71217 33.7439,14.50693 64.41724,21.36625 98.37555,21.99922 36.36361,0.67781 64.84861,-5.68211 96.75559,-21.60287 l 9.75558,-4.86779 -2.4395,4.81412 c -8.46108,16.69714 -11.90742,43.84172 -7.99019,62.9336 7.49571,36.53283 43.51824,63.79989 105.41852,79.79598 8.9454,2.31164 11.4482,3.25604 8.8012,3.32104 -16.3451,0.40135 -55.5226,7.88417 -72.8012,13.90489 -11.02452,3.84149 -30.63914,13.31644 -36.12161,17.44875 -12.18402,9.18346 -21.04515,19.23611 -24.89028,28.23718 -3.71301,8.69176 -6.79602,23.8821 -8.05734,39.69944 -2.31551,29.037 1.64266,56.1199 11.91864,81.55056 1.16677,2.8875 1.95718,5.25 1.75646,5.25 -0.20072,0 -2.0935,-2.1375 -4.20617,-4.75 z m 246.5059,-183.22402 c -10.1354,-1.27661 -18.6842,-3.75834 -24.8224,-7.206 -20.5738,-11.55577 -31.6473,-28.41327 -33.8876,-51.58791 -2.9182,-30.18713 10.1052,-55.25183 35.1724,-67.69238 19.6167,-9.73549 45.8194,-10.25997 68.882,-1.37877 l 7.75,2.98445 v 15.01065 c 0,11.0083 -0.3117,14.90676 -1.1689,14.62103 -0.6428,-0.21429 -1.7448,-2.05336 -2.4488,-4.08682 -2.8758,-8.30651 -11.6659,-18.61631 -19.3362,-22.67906 -7.6255,-4.03907 -21.8193,-5.15859 -30.9658,-2.44238 -8.5693,2.54482 -13.1904,5.41103 -20.0803,12.45479 -10.2938,10.52366 -14.3315,23.42109 -14.237,45.47642 0.081,18.98414 3.6311,31.84827 11.5797,41.96471 4.3888,5.58579 7.2917,7.99876 13.6573,11.35229 8.4342,4.4433 13.7547,5.51036 24.8189,4.97758 10.7873,-0.51944 18.993,-3.39307 24.5605,-8.60112 3.7452,-3.50337 9.0018,-11.6952 10.5517,-16.44346 0.6732,-2.0625 1.6391,-3.75 2.1465,-3.75 0.521,0 0.9224,6.33424 0.9224,14.55532 v 14.55533 l -5.4057,2.47482 c -10.07,4.61019 -33.2686,7.25678 -47.6887,5.44051 z M 1454,543.03773 c -18.424,-2.26055 -28.8902,-7.03835 -40.6085,-18.53773 -12.6602,-12.42377 -18.1948,-25.47355 -19.0851,-45 -1.2409,-27.21521 10.2639,-48.96065 32.6936,-61.79446 9.7011,-5.55078 19.4292,-7.97064 34.0896,-8.47975 15.7331,-0.54636 25.9144,1.06106 37.6604,5.94582 l 7.25,3.01503 v 14.90668 c 0,8.19867 -0.3499,14.90668 -0.7775,14.90668 -0.4276,0 -2.1003,-3.0375 -3.7171,-6.75 -2.1387,-4.9108 -4.7205,-8.52108 -9.4754,-13.25 -7.8315,-7.78869 -12.9257,-9.96626 -25.0852,-10.72286 -13.9831,-0.87008 -24.4983,3.25532 -34.5569,13.55767 -10.6088,10.86592 -15.1496,27.00364 -14.0779,50.03129 0.909,19.53011 4.8652,30.91113 14.0455,40.40542 5.6145,5.8066 11.7108,9.59333 19.7352,12.2586 7.2223,2.39887 23.0638,1.62864 31.2928,-1.52149 7.6442,-2.92622 13.8569,-9.30036 18.2838,-18.75863 1.8663,-3.9875 3.6046,-7.25 3.863,-7.25 0.2583,0 0.4697,6.5499 0.4697,14.55532 v 14.55533 l -5.25,2.39047 c -10.3331,4.70496 -32.3127,7.30801 -46.75,5.53661 z m 225.9987,0.66761 c -0.2743,-0.25234 -3.1481,-0.7386 -6.3863,-1.08058 -7.6151,-0.80423 -12.7576,-2.18776 -19.8624,-5.34372 l -5.75,-2.55417 v -14.42245 c 0,-9.36033 0.351,-14.20553 1,-13.80442 0.55,0.33992 1,1.1946 1,1.89929 0,2.45129 5.9776,13.12493 9.4532,16.87972 11.4581,12.37851 37.0258,14.13461 47.7488,3.27957 5.0806,-5.14318 4.7993,-15.84389 -0.643,-24.46511 -3.4132,-5.4068 -9.1978,-9.86718 -23.5983,-18.19586 -18.7366,-10.8366 -28.2623,-18.67577 -32.2417,-26.53325 -8.2842,-16.35774 -1.8545,-37.14249 13.9859,-45.21074 14.1889,-7.22705 37.981,-6.80908 54.0066,0.94877 l 4.2885,2.07602 v 13.49413 c 0,9.05641 -0.3484,13.37799 -1.0594,13.14098 -0.5827,-0.19423 -2.1291,-2.98481 -3.4364,-6.20129 -5.0619,-12.45456 -15.0133,-20.10217 -27.6792,-21.2713 -11.0306,-1.01818 -20.5434,2.53821 -24.4579,9.1437 -2.5293,4.26806 -2.2271,12.10576 0.7002,18.16083 3.5759,7.39639 10.1512,12.9154 28.3278,23.7768 25.8428,15.44231 31.7919,22.51811 32.4349,38.57774 0.2725,6.8052 -0.082,9.62596 -1.7782,14.14709 -3.884,10.35319 -12.6334,18.0681 -24.0518,21.20799 -5.5785,1.53402 -21.0876,3.19075 -22.0013,2.35026 z m -119.0729,-2.13349 c -11.392,-2.49989 -21.3667,-9.63518 -25.905,-18.53099 -4.6636,-9.14145 -5.0208,-13.30605 -5.0208,-58.53408 0,-47.82253 -0.01,-47.87294 -6.8856,-51.50827 l -3.6144,-1.91012 20,0.0146 c 15.8946,0.0116 19.6027,0.25913 18.0644,1.20581 -3.5639,2.19332 -6.3146,5.6922 -6.9422,8.8304 -0.9966,4.98297 -0.6561,77.61612 0.4026,85.86079 1.107,8.62199 2.2332,11.86546 6.1218,17.63144 5.0945,7.55395 14.3764,10.94259 27.8386,10.16327 14.4548,-0.83677 24.6097,-8.32533 28.8641,-21.28534 2.0683,-6.30048 2.1507,-8.22706 2.1507,-50.30786 0,-48.11519 0.2284,-46.26757 -6.2043,-50.17953 l -2.9708,-1.80667 4.3376,-0.35765 c 2.3856,-0.19671 9.1996,-0.13266 15.1421,0.14234 l 10.8045,0.5 -3.4958,1.87586 c -1.9228,1.03173 -3.8523,2.60673 -4.288,3.5 -0.4356,0.89328 -1.0625,22.09914 -1.3931,47.12414 -0.6403,48.47545 -0.6593,48.66435 -5.9359,59.00722 -1.1982,2.3486 -4.3403,6.43202 -6.9825,9.07426 -8.1391,8.13904 -17.2974,10.88052 -36.0138,10.78043 -6.875,-0.0368 -15.0084,-0.61729 -18.0742,-1.29006 z M 1225,541.06739 c 0,-0.51294 0.8802,-1.21199 1.9561,-1.55345 1.0758,-0.34146 3.1115,-1.99396 4.5236,-3.67222 l 2.5676,-3.05138 -0.2737,-57.31515 -0.2736,-57.31515 -2.4243,-2.58002 c -1.3334,-1.41901 -2.9943,-2.58002 -3.691,-2.58002 -0.6967,0 -1.5448,-0.45 -1.8847,-1 -0.4037,-0.65318 5.9054,-0.9987 18.191,-0.99626 l 18.809,0.004 -3.1333,1.91058 c -6.7138,4.09389 -6.3671,0.6581 -6.363,63.05445 0,54.43065 0.077,56.64705 1.969,59.75065 1.0809,1.77274 3.1042,3.50903 4.4963,3.85841 6.4034,1.60716 1.0466,2.41843 -15.969,2.41843 -10.7755,0 -18.5,-0.3894 -18.5,-0.93261 z m 55,0 c 0,-0.51294 0.8802,-1.21199 1.9561,-1.55345 1.0758,-0.34146 3.1008,-1.98131 4.5,-3.64411 l 2.5439,-3.02328 -0.01,-54.17328 c 0,-33.52684 -0.392,-55.56451 -1.0195,-57.82368 -0.5576,-2.00773 -2.4676,-5.0807 -4.2444,-6.82881 l -3.2305,-3.1784 31,0.39563 c 29.0389,0.37061 31.4428,0.54087 38,2.69147 10.2293,3.35499 13.7034,5.39068 18.7178,10.96788 5.3579,5.95932 7.3384,11.88438 7.1422,21.36757 -0.3235,15.64031 -12.1531,28.24683 -30.86,32.88692 -2.75,0.68212 -5.3658,1.5403 -5.8129,1.90708 -0.7242,0.59409 3.321,7.59325 5.1549,8.91921 0.397,0.28702 7.3157,8.44599 15.3749,18.13104 13.7752,16.55411 22.9902,25.65368 30.5331,30.15073 1.7875,1.0657 3.25,2.34319 3.25,2.83887 0,0.49567 -5.4145,0.90122 -12.0321,0.90122 -12.3869,0 -17.1302,-1.06516 -21.3223,-4.78814 -2.304,-2.04625 -22.8084,-27.54305 -30.9053,-38.43025 -5.5633,-7.48042 -5.7403,-7.9127 -5.7403,-14.02042 v -6.30203 l 7.25,-2.27125 c 8.1166,-2.54274 13.6198,-6.23305 17.7207,-11.883 3.9987,-5.50926 5.3968,-10.74424 5.2891,-19.80491 -0.1556,-13.09055 -5.1326,-21.25529 -15.9998,-26.24755 -4.9199,-2.26015 -7.4738,-2.70829 -17.51,-3.07253 L 1308,414.75349 v 58.71896 c 0,53.80209 0.1444,58.96348 1.7249,61.63899 0.9487,1.60602 2.9737,3.4728 4.5,4.1484 1.5263,0.67561 2.7751,1.56853 2.7751,1.98427 0,0.41574 -8.325,0.75589 -18.5,0.75589 -10.7755,0 -18.5,-0.3894 -18.5,-0.93261 z m 56.9814,-191.17156 c -15.6716,-1.29096 -27.383,-6.52403 -38.7859,-17.33091 -8.1882,-7.76026 -13.5151,-17.28654 -16.8115,-30.06492 -2.5464,-9.87064 -2.5528,-31.66401 -0.012,-40 6.3029,-20.6771 19.4273,-35.54165 37.8497,-42.86792 8.9632,-3.56452 15.1293,-4.63208 26.7545,-4.63208 12.1826,0 22.6814,2.57195 32.9355,8.0684 7.464,4.00088 19.088,14.14041 19.088,16.6503 0,0.70471 0.445,1.2813 0.9888,1.2813 1.4978,0 8.6394,14.82999 10.6387,22.09184 2.4315,8.83177 2.4329,28.94129 0,37.90816 -5.2221,19.26727 -16.7644,34.04513 -32.6882,41.85135 -13.2271,6.48428 -23.9066,8.36693 -39.9605,7.04448 z m 21.7873,-10.43878 c 16.7438,-4.99164 26.7343,-21.08466 29.192,-47.02375 1.8039,-19.03791 -1.3339,-38.02958 -8.1492,-49.32357 -7.5703,-12.54518 -17.1259,-18.57835 -31.3115,-19.7694 -16.6893,-1.40127 -31.6242,6.9602 -38.828,21.73838 -5.0617,10.38394 -6.924,19.97239 -6.9765,35.92129 -0.026,7.975 0.5145,17.2 1.2016,20.5 2.0342,9.76871 7.0703,22.10196 10.8084,26.469 10.3406,12.08066 27.2699,16.49445 44.0632,11.48805 z M 980.5,349.31937 c -8.9764,-2.01354 -13.98729,-3.57598 -18.84521,-5.87609 L 956,340.76586 l 0.0677,-14.63293 c 0.0502,-10.84569 0.32764,-13.98589 1.0721,-12.13293 3.77834,9.40431 7.56879,15.46475 12.21356,19.52788 7.02594,6.14612 12.7961,7.97378 25.14666,7.96505 9.13368,-0.006 10.45028,-0.25601 15.19808,-2.88066 8.882,-4.91015 11.0857,-14.40214 5.8352,-25.13382 -3.5954,-7.3486 -8.6583,-11.58131 -26.90105,-22.48998 C 961.08189,274.51416 954.44258,265.98306 955.17658,248 c 0.26791,-6.564 0.90469,-9.59709 2.79577,-13.31676 4.48343,-8.8187 14.34766,-15.88125 26.12859,-18.70745 11.37995,-2.73001 33.71106,0.29193 43.14906,5.83911 l 2.75,1.61632 v 13.28439 c 0,8.18959 -0.3835,13.28439 -1,13.28439 -0.55,0 -1,-0.45947 -1,-1.02104 0,-2.20147 -6.2904,-13.76128 -9.1581,-16.8297 -6.9691,-7.45692 -17.8574,-11.12742 -28.91158,-9.74629 -14.75441,1.84344 -21.11837,12.11557 -15.97413,25.784 2.66179,7.07248 10.0587,14.17824 22.12176,21.25103 15.62025,9.15846 27.40135,17.23116 31.05125,21.27725 7.1902,7.97061 10.2886,22.87233 7.0572,33.94209 -3.0317,10.38563 -11.8862,18.74813 -24.2973,22.94708 -5.7777,1.95475 -8.9493,2.37423 -17.23489,2.27958 C 987.06939,349.8202 981.6,349.56611 980.5,349.31937 Z m 485.4164,-0.84172 c -9.0692,-2.20201 -16.1366,-5.84624 -21.4742,-11.07286 -10.7228,-10.49997 -11.3631,-14.27514 -11.4071,-67.25366 -0.039,-46.63641 -0.17,-47.71527 -6.129,-50.35298 -1.5983,-0.70751 -2.9061,-1.62652 -2.9061,-2.04226 0,-0.41574 8.55,-0.75589 19,-0.75589 10.45,0 19,0.34015 19,0.75589 0,0.41574 -1.3603,1.35802 -3.0229,2.09396 -6.13,2.71341 -6.1209,2.63012 -5.7736,52.45825 0.3117,44.71341 0.3398,45.25365 2.6583,51.02386 4.37,10.87622 10.7784,15.88639 22.2232,17.37436 17.7816,2.31184 30.6896,-3.72555 37.6123,-17.59224 L 1518.5,317.5 1518.7609,272 c 0.2849,-49.68821 0.3527,-49.04721 -5.4882,-51.91528 -1.775,-0.8716 -3.2375,-1.92222 -3.25,-2.33472 -0.013,-0.4125 6.7273,-0.75 14.9773,-0.75 8.25,0 14.9903,0.3375 14.9784,0.75 -0.012,0.4125 -1.4744,1.425 -3.25,2.25 -5.4272,2.52163 -5.6097,4.14702 -5.672,50.52164 -0.064,47.47615 -0.3881,50.11295 -7.4799,60.79713 -5.8994,8.88778 -13.568,14.17859 -25.0765,17.30095 -6.3776,1.73029 -25.2104,1.64818 -32.5836,-0.14207 z m 137.5666,0.0619 c -32.6249,-7.50982 -52.4189,-32.45761 -52.4682,-66.12955 -0.027,-18.12989 5.6331,-33.27983 17.1127,-45.80785 13.0251,-14.21458 31.0632,-21.55687 53.0345,-21.58733 12.7979,-0.0177 22.6518,1.7316 33.6541,5.97453 l 8.1839,3.15606 v 14.92732 c 0,8.21002 -0.3375,14.91592 -0.75,14.902 -0.4125,-0.0139 -2.3014,-3.27642 -4.1976,-7.25 -4.6329,-9.70847 -13.4777,-18.56424 -21.0841,-21.11012 -14.9554,-5.00565 -32.2923,-2.15579 -43.4561,7.14335 -7.5491,6.28822 -14.2055,17.87387 -17.0879,29.74208 -2.5756,10.60513 -2.3312,30.66251 0.4992,40.96489 6.789,24.71097 22.2555,37.6802 45.0765,37.79823 18.881,0.0977 30.228,-6.86827 37.093,-22.77135 3.9235,-9.08883 4.907,-7.41089 4.907,8.37167 v 13.86343 l -6.1862,2.77619 c -10.5798,4.74794 -15.3605,5.64198 -32.3138,6.04301 -11.284,0.26693 -17.7735,-0.0297 -22.017,-1.00656 z M 1053.0385,347.25 c 0.021,-0.4125 1.4709,-1.65088 3.2215,-2.75195 5.8449,-3.67627 5.7092,-2.21245 5.7253,-61.78017 0.016,-60.51927 -0.01,-60.76753 -5.9678,-63.01738 C 1054.3579,219.07406 1053,218.21018 1053,217.78076 1053,217.35134 1071.1688,217 1093.3751,217 h 40.3751 l 3.5423,10.5 c 3.4625,10.26355 3.7664,13.673 0.6443,7.22729 -3.0016,-6.19671 -5.5642,-6.724 -32.6868,-6.72574 L 1081,228 v 25.08429 25.08429 l 16.75,-0.33429 c 17.7772,-0.35479 19.8613,-0.87092 22.3585,-5.53709 0.6762,-1.26346 1.6034,-2.2972 2.0605,-2.2972 0.457,0 0.831,6.075 0.831,13.5 0,7.425 -0.2189,13.5 -0.4865,13.5 -0.2676,0 -2.0328,-1.6875 -3.9226,-3.75 l -3.4361,-3.75 -17.0957,-0.35119 -17.0958,-0.35119 0.2684,23.85119 0.2683,23.85119 23,0.29742 c 28.2795,0.36569 30.8501,0.0525 35.1897,-4.28714 1.8207,-1.82066 3.316,-3.01778 3.3229,-2.66028 0.01,0.3575 -1.1889,4.5875 -2.6576,9.4 l -2.6702,8.75 h -42.3424 c -23.2883,0 -42.3251,-0.3375 -42.3039,-0.75 z M 1195,347.24411 c 0,-0.41574 1.3702,-1.3624 3.0449,-2.10368 6.6626,-2.94914 6.4246,-0.79331 6.7444,-61.09533 0.1591,-29.9998 0.022,-55.62033 -0.304,-56.9345 -0.5881,-2.36804 -0.6754,-2.38321 -9.7648,-1.69705 -11.3341,0.85561 -16.7404,3.1186 -22.755,9.52488 -4.3717,4.65642 -10.9655,16.40656 -10.9655,19.54053 0,0.83657 -0.5025,1.52104 -1.1166,1.52104 -0.67,0 -0.8755,-0.9 -0.5137,-2.25 0.3317,-1.2375 0.6091,-3.06406 0.6166,-4.05902 0.01,-0.99496 0.4585,-1.53408 1.0022,-1.19806 0.5739,0.35465 0.7303,-0.0622 0.3729,-0.99362 -0.3387,-0.88251 0.6359,-8.10588 2.1658,-16.05193 L 1166.3087,217 h 47.1811 47.1811 l 3.1994,16.75 c 1.7597,9.2125 3.4098,18.1 3.6669,19.75 0.4608,2.95793 0.4514,2.96494 -0.6717,0.5 -4.9059,-10.76722 -6.4917,-13.48019 -10.4584,-17.89211 -6.5105,-7.2412 -12.9958,-10.02894 -24.0812,-10.35126 L 1223.5,225.5 v 56.59971 c 0,61.67014 -0.098,60.58288 5.6627,63.13258 1.5605,0.69076 2.8373,1.59608 2.8373,2.01182 0,0.41574 -8.325,0.75589 -18.5,0.75589 -10.175,0 -18.5,-0.34015 -18.5,-0.75589 z m 488.0385,0.006 c 0.021,-0.4125 1.4709,-1.65088 3.2215,-2.75195 1.7506,-1.10108 3.7516,-3.12608 4.4467,-4.5 1.6151,-3.19247 1.8769,-110.33296 0.2798,-114.5336 -1.1036,-2.9026 -4.7441,-6.37815 -6.7365,-6.43118 C 1683.5625,219.01497 1683,218.55 1683,218 c 0,-0.63063 6.8333,-1 18.5,-1 10.175,0 18.5,0.20389 18.5,0.45308 0,0.2492 -1.5099,1.16956 -3.3552,2.04525 -5.9063,2.80271 -6.1448,4.06021 -6.1448,32.39974 V 277.5 h 34 34 v -26.84594 -26.84594 l -3,-2.39909 c -1.65,-1.3195 -3.5625,-2.40133 -4.25,-2.40406 -0.6875,-0.003 -1.25,-0.45497 -1.25,-1.00497 0,-0.63095 6.8889,-1 18.6667,-1 10.2666,0 18.3746,0.29203 18.0177,0.64896 -0.357,0.35692 -1.6261,1.14442 -2.8203,1.75 -1.1942,0.60557 -3.1147,2.37154 -4.2677,3.92437 -2.0702,2.78804 -2.0964,3.5261 -2.0964,59.04398 0,53.0852 0.1035,56.37864 1.8562,59.05364 1.021,1.55814 3.1585,3.32451 4.75,3.92525 1.5916,0.60075 2.8938,1.44362 2.8938,1.87304 0,0.42942 -8.325,0.78076 -18.5,0.78076 -10.175,0 -18.4827,-0.3375 -18.4615,-0.75 0.021,-0.4125 1.4709,-1.65088 3.2215,-2.75195 5.5437,-3.48681 5.7534,-4.67193 5.4848,-30.99805 l -0.2448,-24 h -34 -34 v 24.54655 c 0,22.22968 0.1752,24.8137 1.8562,27.37696 1.021,1.55674 3.1585,3.32195 4.75,3.92269 1.5916,0.60075 2.8938,1.44362 2.8938,1.87304 0,0.42942 -8.325,0.78076 -18.5,0.78076 -10.175,0 -18.4827,-0.3375 -18.4615,-0.75 z m 141.9884,0 c 0.015,-0.4125 1.7803,-1.83114 3.9233,-3.15254 2.143,-1.32139 4.1497,-3.34639 4.4594,-4.5 0.3097,-1.1536 0.5692,-27.36237 0.5767,-58.2417 l 0.014,-56.14425 -2.7804,-2.85575 c -1.5292,-1.57067 -3.6667,-3.37088 -4.75,-4.00047 -1.5349,-0.89208 2.1685,-1.17524 16.7804,-1.28304 12.3224,-0.0909 18.75,0.21581 18.75,0.89471 0,0.56817 -0.7096,1.03304 -1.5769,1.03304 -0.8673,0 -2.8923,1.31538 -4.5,2.92308 L 1853,224.84615 v 56.62659 c 0,62.15576 -0.1101,60.98297 5.9771,63.67741 1.6626,0.73594 3.0229,1.67822 3.0229,2.09396 0,0.41574 -8.325,0.75589 -18.5,0.75589 -10.175,0 -18.4879,-0.3375 -18.4731,-0.75 z" id="path22" />
    </g>
  </g>
</svg>
